<svg width="68" height="68" viewBox="0 0 68 68" fill="none" xmlns="http://www.w3.org/2000/svg">
<circle cx="34" cy="34" r="34" fill="#FFBD30"/>
<path d="M39.376 40.18C39.6 40.3853 39.712 40.6373 39.712 40.936C39.712 41.2347 39.6 41.4867 39.376 41.692C39.1707 41.8973 38.9187 42 38.62 42H29.408C29.072 42 28.792 41.888 28.568 41.664C28.3627 41.44 28.26 41.16 28.26 40.824C28.26 40.3387 28.316 39.9747 28.428 39.732C28.876 38.6493 29.5107 37.6133 30.332 36.624C31.172 35.6347 32.18 34.58 33.356 33.46C34.532 32.34 35.372 31.4907 35.876 30.912C36.9027 29.736 37.416 28.5507 37.416 27.356C37.416 26.292 37.108 25.424 36.492 24.752C35.8947 24.08 35.0453 23.744 33.944 23.744C32.9733 23.744 32.0867 23.9213 31.284 24.276C31.116 24.3507 30.9107 24.4627 30.668 24.612C30.444 24.7427 30.248 24.8547 30.08 24.948C29.912 25.0227 29.7533 25.06 29.604 25.06C29.324 25.06 29.072 24.9667 28.848 24.78C28.6427 24.5747 28.54 24.3227 28.54 24.024C28.54 23.632 28.7827 23.2773 29.268 22.96C30.5933 22.12 32.1613 21.7 33.972 21.7C35.708 21.7 37.08 22.2133 38.088 23.24C39.096 24.248 39.6 25.5173 39.6 27.048C39.6 28.9893 38.928 30.716 37.584 32.228C37.0987 32.7693 36.3333 33.544 35.288 34.552C34.2427 35.5413 33.356 36.456 32.628 37.296C31.9 38.136 31.3307 38.9947 30.92 39.872H38.62C38.9187 39.872 39.1707 39.9747 39.376 40.18Z" fill="white"/>
</svg>
