<svg width="68" height="68" viewBox="0 0 68 68" fill="none" xmlns="http://www.w3.org/2000/svg">
<circle cx="34" cy="34" r="34" fill="#FFD74B"/>
<path d="M38.648 23.304L33.944 29.38C35.6053 29.4173 36.9493 29.9213 37.976 30.892C39.0213 31.8627 39.544 33.188 39.544 34.868C39.544 35.8947 39.3573 36.8747 38.984 37.808C38.6293 38.7413 38.004 39.5533 37.108 40.244C36.212 40.916 35.1293 41.252 33.86 41.252C33.468 41.252 33.0107 41.224 32.488 41.168C31.984 41.112 31.4053 41.0187 30.752 40.888C30.0987 40.7573 29.548 40.5427 29.1 40.244C28.6707 39.9453 28.456 39.5907 28.456 39.18C28.456 38.9 28.5587 38.6573 28.764 38.452C28.9693 38.228 29.212 38.116 29.492 38.116C29.6973 38.116 29.8933 38.172 30.08 38.284C31.1627 38.9187 32.2173 39.236 33.244 39.236C34.6813 39.236 35.7173 38.816 36.352 37.976C37.0053 37.136 37.332 36.1373 37.332 34.98C37.332 33.748 36.9867 32.8427 36.296 32.264C35.6053 31.6667 34.6813 31.368 33.524 31.368C33.02 31.368 32.6187 31.424 32.32 31.536C32.3013 31.536 32.236 31.564 32.124 31.62C32.0307 31.676 31.9373 31.704 31.844 31.704C31.4707 31.704 31.1907 31.508 31.004 31.116C30.8173 30.724 30.8547 30.3507 31.116 29.996L36.128 23.472H29.912C29.6133 23.472 29.352 23.3693 29.128 23.164C28.9227 22.9587 28.82 22.6973 28.82 22.38C28.82 22.0627 28.9227 21.792 29.128 21.568C29.352 21.344 29.6133 21.232 29.912 21.232H37.724C38.0787 21.232 38.368 21.3533 38.592 21.596C38.816 21.82 38.928 22.1187 38.928 22.492C38.928 22.7907 38.8347 23.0613 38.648 23.304Z" fill="white"/>
</svg>
