<svg width="68" height="68" viewBox="0 0 68 68" fill="none" xmlns="http://www.w3.org/2000/svg">
<circle cx="34" cy="34" r="34" fill="#FF8D30"/>
<path d="M34.588 43.132V26.864L31.144 29.076C30.5653 29.4493 30.1547 29.636 29.912 29.636C29.6693 29.636 29.4453 29.5427 29.24 29.356C29.0347 29.1507 28.932 28.9267 28.932 28.684C28.932 28.2547 29.1 27.928 29.436 27.704L34.952 24.176C35.1573 24.0453 35.3813 23.98 35.624 23.98C35.96 23.98 36.24 24.1013 36.464 24.344C36.7067 24.568 36.828 24.848 36.828 25.184V43.132C36.828 43.4307 36.716 43.692 36.492 43.916C36.268 44.14 36.0067 44.252 35.708 44.252C35.4093 44.252 35.148 44.14 34.924 43.916C34.7 43.692 34.588 43.4307 34.588 43.132Z" fill="white"/>
</svg>
